<svg id="download" xmlns="http://www.w3.org/2000/svg" width="35.557" height="33.287" viewBox="0 0 35.557 33.287">
  <path id="download-2" data-name="download" d="M10.9,30.476c1.933-2.066.789-1.3,1.618-2.511.237-.324-.276-.81-.039-1.013.237-.243.552-3.24,0-3.483-.513-.284-1.5-.04-2.012,1.256-.276.689-.158,1.093-.829,1.58a2.248,2.248,0,0,0-.671,1.175c-.039.486-.986.891-1.144-.324s.237-1.093.631-1.458c.394-.324,1.539-1.539,1.539-2.106,0-.648-1.736-.689-1.973-.527a1.09,1.09,0,0,1-1.736-.81c-.2-1.458-1.46-.04-1.7-.608s.039-.526.434-.769c.355-.243.947-.324.039-.81-.868-.486-2.012.284-2.249.2-.868-.324-.473-1.458,1.026-1.539.71-.04,2.841-.243,2.486-.891-.355-.689-1.894,0-2.367-.081a.749.749,0,0,1-.513-1.134c.276-.486,1.736-.2,1.657-.729-.039-.527-2.643-1.742-3.511-1.7-.868,0-1.7.2-1.578-.608s2.841-.4,3.788-.4,1.894-.891,2.525-1.013c.671-.122.039.04.2,0a3.118,3.118,0,0,1,.868,0c1.223.162,1.736-.769.749-1.7-.947-.931-.592-1.823-2.051-2.187-.276-.081-.671-.081-.868-.446C5.061,7.51,3.128,6.7,2.773,6.011c-.474-.972-.907-1.256-.118-1.9a1.221,1.221,0,0,1,1.5.567c.118.324.276.931.552.972s.947,1.5,2.131,1.863,1.184.364,1.381.364c.2.04,1.144.689,1.381.648a6.779,6.779,0,0,1,1.184-.243c.355,0,.237.122.552.2s.2,0,.434,0,.118-.689.552-.769c0,0-1.144-1.418-.671-1.944.473-.608,2.17,2.025,2.486,1.215.276-.769-.789-3-.947-3.483C11.531-1.2,16.344-.307,16.5,1.961s-.118,5.752,1.775,2.957a2.517,2.517,0,0,0,.592-1.863c0-1.337,1.5-.891,1.341,0-.079.446.039,1.823.592,1.62.2-.081-.079-1.215.434-1.458.513-.2.749,0,.592.891-.08.892.2,1.054.709.163.118-.162.513.446.592-.081s.947-.122,1.184,0a1.327,1.327,0,0,0,.947-.122,2.347,2.347,0,0,0,.829-.567,6.524,6.524,0,0,0,.552-1.256c.513-1.256,2.17-.972,1.539.04-.552.931-1.657,1.62-2.328,2.511-.276.4.2.486.513.243.2-.162,1.144-.689,1.3.081.158.891-1.42,1.175-1.578,1.418-1.854,3.038,1.46.243,1.933.162.513-.122-.355.567.079,1.134.829,1.093,1.46.04,1.973-.4s1.854-.527,2.131.527-.631,1.175-.829,1.782c-.237.567-.434.324-.829.567s-.947,1.661-.316,1.742,3-.891,2.407.243c-.316.608-1.775.486-2.407.729-.71.284,2.051.081,2.051.689.039.446-.829.689-1.657.364-.829-.284-1.184-.364-1.578-.081s-.473,1.782.316,1.944c.592.122-.316,2.066.473,1.782s4.853,1.458,5.445,2.268-.513,1.823-1.657,1.175c-1.223-.729-1.933-1.58-3.472-1.661a5.869,5.869,0,0,0-2.051.04c-.434.2-.592,1.539.237,2.147.789.567-.434.648.513,1.782.118.162,3.551,3.362,2.051,3.686-1.775.364-.986-1.418-1.736-2.39A8.143,8.143,0,0,1,27.549,22.7c-.394-.972-2.209.608-.513,1.3,1.341.567,2.249,4.415-.513,3.929-.947-.162.907,1.944-.434,1.458s.394.931.316,1.539-.237.608-.513.364-.986-1.3-1.184-1.5c-.237-.2-.394-.324-.394-.243a7.9,7.9,0,0,0,1.065,1.742c.986,1.539-.631,1.62-1.184.243-.513-1.418-1.341-2.592-1.341-2.835s-.473.2-.552-.2c-.079-.446-.829,1.337-.394,2.39.434,1.093-.513,1.175-.631.324A9.262,9.262,0,0,0,19.9,28.936a3.485,3.485,0,0,1-1.815-.81c-.71-.689-1.341,1.093-1.026,3.119S15.082,34.688,14.846,31c-.237-3.443-1.775-2.592-2.209-.486-.356,2.147-3.315,1.661-1.737-.04ZM29.127,5.688c-.079.567,1.933-.648,2.564-1.256C33.151,2.974,36.386,1.84,35.36.261,34.335-1.36,29.206,5.08,29.127,5.688Z" transform="translate(35.557 33.287) rotate(180)" fill="#0D95F2" fill-rule="evenodd"/>
</svg>
