<svg id="Component_1_19" data-name="Component 1 – 19" xmlns="http://www.w3.org/2000/svg" width="67.64" height="67.5" viewBox="0 0 67.64 67.5">
  <path id="download" d="M20.734,61.8c3.678-4.189,1.5-2.629,3.077-5.092.45-.657-.526-1.643-.075-2.053.45-.493,1.051-6.571,0-7.063-.976-.575-2.852-.082-3.828,2.546-.526,1.4-.3,2.217-1.576,3.2a4.626,4.626,0,0,0-1.276,2.382c-.075.986-1.876,1.807-2.176-.657s.45-2.217,1.2-2.957c.75-.657,2.927-3.121,2.927-4.271,0-1.314-3.3-1.4-3.753-1.068a2.051,2.051,0,0,1-3.3-1.643c-.375-2.957-2.777-.082-3.227-1.232s.075-1.068.826-1.56c.675-.493,1.8-.657.075-1.643C7.976,39.7,5.8,41.265,5.35,41.1c-1.651-.657-.9-2.957,1.951-3.121,1.351-.082,5.4-.493,4.728-1.807-.675-1.4-3.6,0-4.5-.164a1.539,1.539,0,0,1-.976-2.3c.526-.986,3.3-.411,3.152-1.478-.075-1.068-5.028-3.532-6.679-3.45-1.651,0-3.227.411-3-1.232s5.4-.821,7.205-.821,3.6-1.807,4.8-2.053c1.276-.247.075.082.375,0a5.568,5.568,0,0,1,1.651,0c2.326.329,3.3-1.56,1.426-3.45-1.8-1.889-1.126-3.7-3.9-4.435-.526-.164-1.276-.164-1.651-.9-.3-.657-3.978-2.3-4.653-3.7-.9-1.971-1.726-2.546-.225-3.86A2.255,2.255,0,0,1,7.9,9.479c.225.657.526,1.889,1.051,1.971s1.8,3.039,4.053,3.778,2.251.739,2.627.739c.375.082,2.176,1.4,2.627,1.314a12.2,12.2,0,0,1,2.251-.493c.675,0,.45.247,1.051.411s.375,0,.826,0,.225-1.4,1.051-1.56c0,0-2.176-2.874-1.276-3.942.9-1.232,4.128,4.107,4.728,2.464.526-1.56-1.5-6.078-1.8-7.063-3.152-9.527,6-7.72,6.3-3.121s-.225,11.663,3.377,6c0,0,1.126-1.068,1.126-3.778s2.852-1.807,2.552,0c-.15.9.075,3.7,1.126,3.285.375-.164-.15-2.464.826-2.957.976-.411,1.426,0,1.126,1.807-.152,1.808.374,2.137,1.35.33.225-.329.976.9,1.126-.164s1.8-.247,2.251,0a2.386,2.386,0,0,0,1.8-.247A4.466,4.466,0,0,0,49.629,7.1,13.7,13.7,0,0,0,50.68,4.553c.976-2.546,4.128-1.971,2.927.082-1.051,1.889-3.152,3.285-4.428,5.092-.526.821.375.986.976.492.375-.329,2.176-1.4,2.477.164.3,1.807-2.7,2.382-3,2.874-3.527,6.16,2.777.493,3.678.329.976-.247-.675,1.15.15,2.3,1.576,2.217,2.777.082,3.753-.821S60.737,14,61.262,16.133s-1.2,2.382-1.576,3.614c-.45,1.15-.826.657-1.576,1.15s-1.8,3.368-.6,3.532,5.7-1.807,4.578.493c-.6,1.232-3.377.986-4.578,1.478-1.351.575,3.9.164,3.9,1.4.075.9-1.576,1.4-3.152.739-1.576-.575-2.251-.739-3-.164s-.9,3.614.6,3.942c1.126.247-.6,4.189.9,3.614s9.231,2.957,10.357,4.6-.976,3.7-3.152,2.382c-2.326-1.478-3.678-3.2-6.6-3.368-.6-.082-3.077-.329-3.9.082s-1.126,3.121.45,4.353c1.5,1.15-.826,1.314.976,3.614.225.329,6.754,6.817,3.9,7.475-3.377.739-1.876-2.874-3.3-4.846-.45-.657-2.326-2.217-3.077-4.189s-4.2,1.232-.976,2.629c2.552,1.15,4.278,8.953-.976,7.967-1.8-.329,1.726,3.942-.826,2.957s.75,1.889.6,3.121-.45,1.232-.976.739S47.378,60.813,47,60.4c-.45-.411-.75-.657-.75-.493-.075.493,1.8,3.2,2.026,3.532,1.876,3.121-1.2,3.285-2.251.493-.976-2.874-2.552-5.257-2.552-5.75s-.9.411-1.051-.411c-.15-.9-1.576,2.711-.75,4.846.826,2.217-.976,2.382-1.2.657-.15-1.232-2.627-4.6-2.627-4.6a6.413,6.413,0,0,1-3.452-1.643c-1.351-1.4-2.552,2.217-1.951,6.324s-3.753,6.981-4.2-.492c-.45-6.981-3.377-5.257-4.2-.986-.677,4.354-6.306,3.368-3.3-.081ZM55.407,11.534c-.15,1.15,3.678-1.314,4.878-2.546,2.777-2.957,8.931-5.257,6.98-8.459C65.314-2.757,55.557,10.3,55.407,11.534Z" transform="translate(67.64 67.5) rotate(180)" fill="#00cb3d" fill-rule="evenodd"/>
  <text id="GG" transform="translate(19.32 42.25)" fill="#fff" font-size="18" font-family="BookmanOldStyle-Bold, Bookman Old Style" font-weight="700" letter-spacing="0.04em"><tspan x="0" y="0">GG</tspan></text>
</svg>
